name rise49.25peak52.1432fall72.8391.mot
datacolumns 19
datarows 12
range 19.26325400000000 19.28159500000000
endheader
time	ground_force1_vx	ground_force1_vy	ground_force1_vz	ground_force1_px	ground_force1_py	ground_force1_pz	ground_force2_vx	ground_force2_vy	ground_force2_vz	ground_force2_px	ground_force2_py	ground_force2_pz	ground_torque1_x	ground_torque1_y	ground_torque1_z	ground_torque2_x	ground_torque2_y	ground_torque2_z	
19.26325400000000	54.96235600000000	836.41948200000002	68.08627700000000	0.33099900000000	0.00000000000000	0.12315300000000	0.00000000000000	0.00000000000000	0.00000000000000	0.00000000000000	0.00000000000000	0.00000000000000	0.00000000000000	30.41528000000000	0.00000000000000	0.00000000000000	0.00000000000000	0.00000000000000	
19.26492200000000	54.12348500000000	837.16986799999995	68.07038500000000	0.33031200000000	0.00000000000000	0.12316300000000	0.00000000000000	0.00000000000000	0.00000000000000	0.00000000000000	0.00000000000000	0.00000000000000	0.00000000000000	30.45916500000000	0.00000000000000	0.00000000000000	0.00000000000000	0.00000000000000	
19.26659600000000	53.28457000000000	837.70051899999999	68.03673800000000	0.32962700000000	0.00000000000000	0.12317500000000	0.00000000000000	0.00000000000000	0.00000000000000	0.00000000000000	0.00000000000000	0.00000000000000	0.00000000000000	30.49114500000000	0.00000000000000	0.00000000000000	0.00000000000000	0.00000000000000	
19.26825900000000	52.44652300000000	838.01451599999996	67.98577400000001	0.32894000000000	0.00000000000000	0.12318800000000	0.00000000000000	0.00000000000000	0.00000000000000	0.00000000000000	0.00000000000000	0.00000000000000	0.00000000000000	30.51130100000000	0.00000000000000	0.00000000000000	0.00000000000000	0.00000000000000	
19.26992600000000	51.61018900000000	838.11531000000002	67.91793300000000	0.32825000000000	0.00000000000000	0.12320200000000	0.00000000000000	0.00000000000000	0.00000000000000	0.00000000000000	0.00000000000000	0.00000000000000	0.00000000000000	30.51972000000000	0.00000000000000	0.00000000000000	0.00000000000000	0.00000000000000	
19.27159100000000	50.77635700000000	838.00672399999996	67.83365200000000	0.32755400000000	0.00000000000000	0.12321800000000	0.00000000000000	0.00000000000000	0.00000000000000	0.00000000000000	0.00000000000000	0.00000000000000	0.00000000000000	30.51650700000000	0.00000000000000	0.00000000000000	0.00000000000000	0.00000000000000	
19.27326600000000	49.94575300000000	837.69294300000001	67.73336900000000	0.32685200000000	0.00000000000000	0.12323600000000	0.00000000000000	0.00000000000000	0.00000000000000	0.00000000000000	0.00000000000000	0.00000000000000	0.00000000000000	30.50177500000000	0.00000000000000	0.00000000000000	0.00000000000000	0.00000000000000	
19.27492700000000	49.11905000000000	837.17850199999998	67.61752199999999	0.32614100000000	0.00000000000000	0.12325600000000	0.00000000000000	0.00000000000000	0.00000000000000	0.00000000000000	0.00000000000000	0.00000000000000	0.00000000000000	30.47565200000000	0.00000000000000	0.00000000000000	0.00000000000000	0.00000000000000	
19.27659100000000	48.29686100000000	836.46828300000004	67.48655100000001	0.32541800000000	0.00000000000000	0.12327800000000	0.00000000000000	0.00000000000000	0.00000000000000	0.00000000000000	0.00000000000000	0.00000000000000	0.00000000000000	30.43828100000000	0.00000000000000	0.00000000000000	0.00000000000000	0.00000000000000	
19.27826000000000	47.47974900000000	835.56749800000000	67.34089500000000	0.32468200000000	0.00000000000000	0.12330200000000	0.00000000000000	0.00000000000000	0.00000000000000	0.00000000000000	0.00000000000000	0.00000000000000	0.00000000000000	30.38981900000000	0.00000000000000	0.00000000000000	0.00000000000000	0.00000000000000	
19.27992900000000	46.66822300000000	834.48167799999999	67.18099800000000	0.32393000000000	0.00000000000000	0.12332900000000	0.00000000000000	0.00000000000000	0.00000000000000	0.00000000000000	0.00000000000000	0.00000000000000	0.00000000000000	30.33043600000000	0.00000000000000	0.00000000000000	0.00000000000000	0.00000000000000	
19.28159500000000	45.86274200000000	833.21666200000004	67.00730600000000	0.32316100000000	0.00000000000000	0.12335900000000	0.00000000000000	0.00000000000000	0.00000000000000	0.00000000000000	0.00000000000000	0.00000000000000	0.00000000000000	30.26032000000000	0.00000000000000	0.00000000000000	0.00000000000000	0.00000000000000	
